<?xml version="1.0" ?><!DOCTYPE svg  PUBLIC '-//W3C//DTD SVG 1.1//EN'  'http://www.w3.org/Graphics/SVG/1.1/DTD/svg11.dtd'><svg enable-background="new 0 0 139 139" height="139px" id="Phone" version="1.1" viewBox="0 0 139 139" width="139px" xml:space="preserve" xmlns="http://www.w3.org/2000/svg" xmlns:xlink="http://www.w3.org/1999/xlink"><path d="M90.841,10.641H48.159c-7.252,0-13.133,5.88-13.133,13.133v94.12c0,7.252,5.88,13.133,13.133,13.133h42.682  c7.253,0,13.134-5.881,13.134-13.133v-94.12C103.975,16.521,98.094,10.641,90.841,10.641z M69.5,125.093  c-3.674,0-6.652-2.976-6.652-6.651s2.979-6.651,6.652-6.651c3.675,0,6.653,2.976,6.653,6.651S73.175,125.093,69.5,125.093z   M91.944,105.664H47.056V25.862c0-1.648,1.343-2.991,2.993-2.991h38.904c1.648,0,2.992,1.343,2.992,2.991V105.664z"/></svg>